<mxfile host="www.draw.io" modified="2020-02-29T10:24:13.676Z" agent="Mozilla/5.0 (Macintosh; Intel Mac OS X 10.11; rv:73.0) Gecko/20100101 Firefox/73.0" etag="J8Pe7myxtuVQr7OqoGdE" version="12.7.9" type="github">
  <diagram id="4OUkkNNA4HFFZ1i62e0l" name="Page-1">
    <mxGraphModel dx="780" dy="838" grid="1" gridSize="10" guides="1" tooltips="1" connect="1" arrows="1" fold="1" page="1" pageScale="1" pageWidth="827" pageHeight="1169" math="0" shadow="0">
      <root>
        <mxCell id="0" />
        <mxCell id="1" parent="0" />
        <mxCell id="hfYNJdI-aoetA4Bgl9kD-1" value="&lt;h1&gt;Filler Text&lt;br&gt;&lt;/h1&gt;&lt;p&gt;Lorem ipsum dolor sit amet, consectetur adipisicing elit, sed do eiusmod tempor incididunt ut labore et dolore magna aliqua.&lt;/p&gt;" style="text;html=1;strokeColor=none;fillColor=none;spacing=5;spacingTop=-20;whiteSpace=wrap;overflow=hidden;rounded=0;" parent="1" vertex="1">
          <mxGeometry x="110" y="150" width="190" height="120" as="geometry" />
        </mxCell>
        <mxCell id="hfYNJdI-aoetA4Bgl9kD-2" value="draw.io" style="ellipse;whiteSpace=wrap;html=1;aspect=fixed;" parent="1" vertex="1">
          <mxGeometry x="360" y="390" width="80" height="80" as="geometry" />
        </mxCell>
        <mxCell id="hfYNJdI-aoetA4Bgl9kD-3" value="" style="curved=1;endArrow=classic;html=1;exitX=0.5;exitY=1;exitDx=0;exitDy=0;entryX=0;entryY=0.5;entryDx=0;entryDy=0;" parent="1" source="hfYNJdI-aoetA4Bgl9kD-1" target="hfYNJdI-aoetA4Bgl9kD-2" edge="1">
          <mxGeometry width="50" height="50" relative="1" as="geometry">
            <mxPoint x="210" y="450" as="sourcePoint" />
            <mxPoint x="260" y="400" as="targetPoint" />
            <Array as="points">
              <mxPoint x="205" y="440" />
            </Array>
          </mxGeometry>
        </mxCell>
        <mxCell id="PVP8e2OB6DIPadQBsGH_-1" value="Actor" style="shape=umlActor;verticalLabelPosition=bottom;labelBackgroundColor=#ffffff;verticalAlign=top;html=1;outlineConnect=0;" vertex="1" parent="1">
          <mxGeometry x="520" y="260" width="30" height="60" as="geometry" />
        </mxCell>
        <mxCell id="PVP8e2OB6DIPadQBsGH_-2" value="Hello GitHub" style="shape=callout;whiteSpace=wrap;html=1;perimeter=calloutPerimeter;" vertex="1" parent="1">
          <mxGeometry x="490" y="170" width="120" height="80" as="geometry" />
        </mxCell>
      </root>
    </mxGraphModel>
  </diagram>
</mxfile>
